<svg width="1600" height="600" xmlns="http://www.w3.org/2000/svg">
  <defs>
    <!-- Subtle gradient matching your color scheme -->
    <linearGradient id="nodeGradient" x1="0%" y1="0%" x2="100%" y2="100%">
      <stop offset="0%" stop-color="#007581" stop-opacity="0.15"/>
      <stop offset="100%" stop-color="#007581" stop-opacity="0.08"/>
    </linearGradient>
    <!-- Subtle radial gradient for larger nodes -->
    <radialGradient id="nodeRadial" cx="50%" cy="50%" r="50%">
      <stop offset="0%" stop-color="#007581" stop-opacity="0.2"/>
      <stop offset="100%" stop-color="#007581" stop-opacity="0.05"/>
    </radialGradient>
  </defs>

  <!-- Background subtle pattern -->
  <rect width="100%" height="100%" fill="none"/>

  <!-- Connection lines - very subtle -->
  <g stroke="#007581" stroke-opacity="0.08" stroke-width="1.5">
    <!-- Left offscreen connections -->
    <line x1="-50" y1="250" x2="120" y2="300"/>
    <line x1="-80" y1="180" x2="180" y2="220"/>
    <line x1="-30" y1="400" x2="150" y2="380"/>
    <line x1="-100" y1="320" x2="80" y2="320"/>
    
    <!-- Main network backbone -->
    <line x1="200" y1="300" x2="450" y2="180"/>
    <line x1="200" y1="300" x2="480" y2="420"/>
    <line x1="450" y1="180" x2="700" y2="240"/>
    <line x1="480" y1="420" x2="750" y2="380"/>
    <line x1="700" y1="240" x2="950" y2="180"/>
    <line x1="750" y1="380" x2="950" y2="180"/>
    <line x1="750" y1="380" x2="1000" y2="420"/>
    <line x1="950" y1="180" x2="1200" y2="300"/>
    <line x1="1000" y1="420" x2="1200" y2="300"/>
    
    <!-- Additional horizontal connections -->
    <line x1="120" y1="300" x2="200" y2="300"/>
    <line x1="180" y1="220" x2="300" y2="120"/>
    <line x1="150" y1="380" x2="320" y2="380"/>
    <line x1="80" y1="320" x2="200" y2="300"/>
    
    <!-- Mid-section dense network -->
    <line x1="380" y1="160" x2="520" y2="200"/>
    <line x1="420" y1="300" x2="580" y2="320"/>
    <line x1="480" y1="250" x2="640" y2="280"/>
    <line x1="520" y1="380" x2="680" y2="350"/>
    <line x1="600" y1="160" x2="740" y2="190"/>
    <line x1="660" y1="320" x2="820" y2="340"/>
    <line x1="720" y1="450" x2="880" y2="420"/>
    <line x1="780" y1="280" x2="920" y2="260"/>
    
    <!-- Cross connections for density -->
    <line x1="380" y1="160" x2="640" y2="280"/>
    <line x1="420" y1="300" x2="680" y2="350"/>
    <line x1="520" y1="200" x2="780" y2="280"/>
    <line x1="580" y1="320" x2="820" y2="340"/>
    <line x1="600" y1="160" x2="880" y2="420"/>
    <line x1="660" y1="320" x2="920" y2="260"/>
    
    <!-- Secondary connections -->
    <line x1="300" y1="120" x2="450" y2="180"/>
    <line x1="300" y1="120" x2="700" y2="240"/>
    <line x1="520" y1="100" x2="450" y2="180"/>
    <line x1="520" y1="100" x2="700" y2="240"/>
    <line x1="1080" y1="140" x2="950" y2="180"/>
    <line x1="1080" y1="140" x2="1200" y2="300"/>
    <line x1="1250" y1="450" x2="1200" y2="300"/>
    <line x1="1250" y1="450" x2="1000" y2="420"/>
    <line x1="850" y1="500" x2="1000" y2="420"/>
    <line x1="850" y1="500" x2="750" y2="380"/>
    <line x1="580" y1="480" x2="750" y2="380"/>
    <line x1="580" y1="480" x2="480" y2="420"/>
    <line x1="420" y1="500" x2="480" y2="420"/>
    <line x1="420" y1="500" x2="200" y2="300"/>
    <line x1="200" y1="300" x2="150" y2="450"/>
    <line x1="150" y1="450" x2="420" y2="500"/>
    
    <!-- New intermediate connections -->
    <line x1="340" y1="260" x2="380" y2="160"/>
    <line x1="340" y1="260" x2="420" y2="300"/>
    <line x1="560" y1="140" x2="520" y2="200"/>
    <line x1="560" y1="140" x2="600" y2="160"/>
    <line x1="760" y1="220" x2="740" y2="190"/>
    <line x1="760" y1="220" x2="780" y2="280"/>
    <line x1="860" y1="380" x2="880" y2="420"/>
    <line x1="860" y1="380" x2="820" y2="340"/>
    
    <!-- Right side expansive connections -->
    <line x1="1050" y1="300" x2="1200" y2="300"/>
    <line x1="1050" y1="300" x2="1000" y2="420"/>
    <line x1="1050" y1="300" x2="950" y2="180"/>
    <line x1="1150" y1="160" x2="1080" y2="140"/>
    <line x1="1150" y1="160" x2="1200" y2="300"/>
    <line x1="1280" y1="240" x2="1200" y2="300"/>
    <line x1="1280" y1="240" x2="1250" y2="450"/>
    <line x1="1180" y1="480" x2="1250" y2="450"/>
    <line x1="1180" y1="480" x2="1000" y2="420"/>
    
    <!-- Peripheral network extensions -->
    <line x1="600" y1="160" x2="450" y2="180"/>
    <line x1="600" y1="160" x2="700" y2="240"/>
    <line x1="600" y1="160" x2="520" y2="100"/>
    <line x1="780" y1="140" x2="700" y2="240"/>
    <line x1="780" y1="140" x2="950" y2="180"/>
    <line x1="780" y1="140" x2="600" y2="160"/>
    <line x1="320" y1="380" x2="200" y2="300"/>
    <line x1="320" y1="380" x2="480" y2="420"/>
    <line x1="320" y1="380" x2="420" y2="500"/>
    
    <!-- Sparse outer connections -->
    <line x1="100" y1="200" x2="200" y2="300"/>
    <line x1="100" y1="200" x2="300" y2="120"/>
    <line x1="350" y1="80" x2="300" y2="120"/>
    <line x1="350" y1="80" x2="520" y2="100"/>
    <line x1="1300" y1="150" x2="1080" y2="140"/>
    <line x1="1300" y1="150" x2="1200" y2="300"/>
    <line x1="900" y1="80" x2="950" y2="180"/>
    <line x1="900" y1="80" x2="780" y2="140"/>
    
    <!-- Right offscreen connections -->
    <line x1="1200" y1="300" x2="1650" y2="280"/>
    <line x1="1250" y1="450" x2="1680" y2="420"/>
    <line x1="1300" y1="150" x2="1700" y2="180"/>
    <line x1="1080" y1="140" x2="1720" y2="120"/>
    <line x1="1180" y1="480" x2="1650" y2="500"/>
    
    <!-- Additional right side connections -->
    <line x1="1200" y1="300" x2="1380" y2="350"/>
    <line x1="1280" y1="240" x2="1420" y2="200"/>
    <line x1="1150" y1="160" x2="1480" y2="140"/>
    <line x1="1180" y1="480" x2="1380" y2="350"/>
    <line x1="1380" y1="350" x2="1650" y2="280"/>
    <line x1="1420" y1="200" x2="1700" y2="180"/>
    <line x1="1480" y1="140" x2="1720" y2="120"/>
    <line x1="1050" y1="300" x2="1380" y2="350"/>
    <line x1="1380" y1="350" x2="1480" y2="140"/>
    <line x1="1420" y1="200" x2="1480" y2="140"/>
    <line x1="1500" y1="320" x2="1650" y2="280"/>
    <line x1="1500" y1="320" x2="1680" y2="420"/>
    <line x1="1420" y1="200" x2="1500" y2="320"/>
    <line x1="1380" y1="350" x2="1500" y2="320"/>
    <line x1="1340" y1="480" x2="1380" y2="350"/>
    <line x1="1340" y1="480" x2="1650" y2="500"/>
    <line x1="1250" y1="450" x2="1340" y2="480"/>
    <line x1="1460" y1="460" x2="1650" y2="500"/>
    <line x1="1460" y1="460" x2="1680" y2="420"/>
    <line x1="1500" y1="320" x2="1460" y2="460"/>
  </g>

  <!-- Network nodes with varying sizes and opacity -->
  <g>
    <!-- Left offscreen nodes -->
    <circle cx="-50" cy="250" r="7" fill="#007581" fill-opacity="0.08"/>
    <circle cx="-80" cy="180" r="6" fill="#007581" fill-opacity="0.06"/>
    <circle cx="-30" cy="400" r="6" fill="#007581" fill-opacity="0.06"/>
    <circle cx="-100" cy="320" r="5" fill="#007581" fill-opacity="0.05"/>
    
    <!-- Left edge connecting nodes -->
    <circle cx="120" cy="300" r="8" fill="url(#nodeGradient)"/>
    <circle cx="180" cy="220" r="7" fill="#007581" fill-opacity="0.12"/>
    <circle cx="150" cy="380" r="7" fill="#007581" fill-opacity="0.12"/>
    <circle cx="80" cy="320" r="6" fill="#007581" fill-opacity="0.08"/>
    
    <!-- Major nodes -->
    <circle cx="200" cy="300" r="12" fill="url(#nodeRadial)"/>
    <circle cx="700" cy="240" r="14" fill="url(#nodeRadial)"/>
    <circle cx="950" cy="180" r="13" fill="url(#nodeRadial)"/>
    <circle cx="1200" cy="300" r="12" fill="url(#nodeRadial)"/>
    
    <!-- Secondary nodes -->
    <circle cx="450" cy="180" r="10" fill="url(#nodeGradient)"/>
    <circle cx="480" cy="420" r="10" fill="url(#nodeGradient)"/>
    <circle cx="750" cy="380" r="10" fill="url(#nodeGradient)"/>
    <circle cx="1000" cy="420" r="10" fill="url(#nodeGradient)"/>
    
    <!-- New mid-section dense nodes -->
    <circle cx="380" cy="160" r="8" fill="#007581" fill-opacity="0.12"/>
    <circle cx="420" cy="300" r="8" fill="#007581" fill-opacity="0.12"/>
    <circle cx="480" cy="250" r="7" fill="#007581" fill-opacity="0.10"/>
    <circle cx="520" cy="200" r="8" fill="#007581" fill-opacity="0.12"/>
    <circle cx="520" cy="380" r="7" fill="#007581" fill-opacity="0.10"/>
    <circle cx="580" cy="320" r="8" fill="#007581" fill-opacity="0.12"/>
    <circle cx="600" cy="160" r="9" fill="url(#nodeGradient)"/>
    <circle cx="640" cy="280" r="7" fill="#007581" fill-opacity="0.10"/>
    <circle cx="660" cy="320" r="7" fill="#007581" fill-opacity="0.10"/>
    <circle cx="680" cy="350" r="8" fill="#007581" fill-opacity="0.12"/>
    <circle cx="720" cy="450" r="7" fill="#007581" fill-opacity="0.10"/>
    <circle cx="740" cy="190" r="8" fill="#007581" fill-opacity="0.12"/>
    <circle cx="780" cy="280" r="8" fill="#007581" fill-opacity="0.12"/>
    <circle cx="820" cy="340" r="7" fill="#007581" fill-opacity="0.10"/>
    <circle cx="880" cy="420" r="8" fill="#007581" fill-opacity="0.12"/>
    <circle cx="920" cy="260" r="7" fill="#007581" fill-opacity="0.10"/>
    
    <!-- New intermediate nodes -->
    <circle cx="340" cy="260" r="6" fill="#007581" fill-opacity="0.08"/>
    <circle cx="560" cy="140" r="6" fill="#007581" fill-opacity="0.08"/>
    <circle cx="760" cy="220" r="6" fill="#007581" fill-opacity="0.08"/>
    <circle cx="860" cy="380" r="6" fill="#007581" fill-opacity="0.08"/>
    
    <!-- Smaller connecting nodes -->
    <circle cx="300" cy="120" r="7" fill="#007581" fill-opacity="0.12"/>
    <circle cx="520" cy="100" r="8" fill="#007581" fill-opacity="0.12"/>
    <circle cx="1080" cy="140" r="8" fill="#007581" fill-opacity="0.12"/>
    <circle cx="1250" cy="450" r="9" fill="#007581" fill-opacity="0.12"/>
    <circle cx="850" cy="500" r="8" fill="#007581" fill-opacity="0.12"/>
    <circle cx="580" cy="480" r="8" fill="#007581" fill-opacity="0.12"/>
    <circle cx="420" cy="500" r="8" fill="#007581" fill-opacity="0.12"/>
    <circle cx="150" cy="450" r="7" fill="#007581" fill-opacity="0.12"/>
    <circle cx="1050" cy="300" r="8" fill="#007581" fill-opacity="0.12"/>
    <circle cx="780" cy="140" r="7" fill="#007581" fill-opacity="0.12"/>
    <circle cx="320" cy="380" r="7" fill="#007581" fill-opacity="0.12"/>
    
    <!-- Right side expansion nodes -->
    <circle cx="1150" cy="160" r="7" fill="#007581" fill-opacity="0.12"/>
    <circle cx="1280" cy="240" r="8" fill="#007581" fill-opacity="0.12"/>
    <circle cx="1180" cy="480" r="7" fill="#007581" fill-opacity="0.12"/>
    
    <!-- Additional right side nodes -->
    <circle cx="1380" cy="350" r="9" fill="url(#nodeGradient)"/>
    <circle cx="1420" cy="200" r="8" fill="#007581" fill-opacity="0.12"/>
    <circle cx="1480" cy="140" r="7" fill="#007581" fill-opacity="0.10"/>
    <circle cx="1500" cy="320" r="8" fill="#007581" fill-opacity="0.12"/>
    <circle cx="1340" cy="480" r="7" fill="#007581" fill-opacity="0.10"/>
    <circle cx="1460" cy="460" r="7" fill="#007581" fill-opacity="0.10"/>
    
    <!-- Peripheral nodes -->
    <circle cx="100" cy="200" r="6" fill="#007581" fill-opacity="0.08"/>
    <circle cx="350" cy="80" r="6" fill="#007581" fill-opacity="0.08"/>
    <circle cx="1300" cy="150" r="7" fill="#007581" fill-opacity="0.08"/>
    <circle cx="900" cy="80" r="6" fill="#007581" fill-opacity="0.08"/>
    
    <!-- Right offscreen nodes -->
    <circle cx="1650" cy="280" r="8" fill="#007581" fill-opacity="0.08"/>
    <circle cx="1680" cy="420" r="7" fill="#007581" fill-opacity="0.06"/>
    <circle cx="1700" cy="180" r="6" fill="#007581" fill-opacity="0.06"/>
    <circle cx="1720" cy="120" r="5" fill="#007581" fill-opacity="0.05"/>
    <circle cx="1650" cy="500" r="6" fill="#007581" fill-opacity="0.06"/>
  </g>
</svg>